<svg width="14" height="18" viewBox="0 0 14 18" fill="none" xmlns="http://www.w3.org/2000/svg">
<path d="M6.89824 17.4098C3.79752 17.9338 1.77283 16.0268 1.14807 15.0078L1.73037 13.1699L2.40365 11.9871L2.89496 9.69433L4.31431 7.89286L5.77005 7.82007L8.93628 7.89286L11.9569 12.0963L12.976 14.6075C11.2 17.417 8.18415 17.6463 6.89824 17.4098Z" fill="url(#paint0_linear_2_7069)"/>
<path fill-rule="evenodd" clip-rule="evenodd" d="M7.77339 12.7745C7.68698 12.8318 7.58722 12.8657 7.48382 12.8729C7.38041 12.8802 7.27689 12.8605 7.18333 12.8159C7.05822 12.7423 6.95791 12.633 6.89521 12.5021C6.83251 12.3712 6.81029 12.2245 6.83137 12.0809C6.77776 11.3688 6.47545 10.6982 5.97733 10.1865C5.81335 10.91 5.52245 11.5987 5.11812 12.2207L4.63676 12.9557C4.17716 13.657 3.96075 14.4899 4.02082 15.3263C4.06622 15.8888 4.32123 16.4138 4.73535 16.7972C5.14946 17.1806 5.69247 17.3946 6.25683 17.3966H7.56118C8.20959 17.3966 8.83153 17.1394 9.29051 16.6814C9.7495 16.2234 10.008 15.602 10.0094 14.9536C10.0084 13.7121 9.57876 12.509 8.79306 11.5478C8.57157 12.0422 8.21893 12.4664 7.77339 12.7745Z" fill="url(#paint1_linear_2_7069)"/>
<path fill-rule="evenodd" clip-rule="evenodd" d="M10.0609 3.42075L9.79171 3.18265C9.79171 3.18265 9.79171 3.28617 9.79171 3.45698C9.72821 4.11201 9.52142 4.74507 9.18599 5.31127C8.85056 5.87748 8.3947 6.36298 7.85072 6.73336C7.85072 6.73336 7.85072 6.55221 7.81449 6.26753C7.72422 5.13961 7.35417 4.05199 6.73781 3.10306C6.12146 2.15413 5.27826 1.37384 4.28448 0.832764C4.28448 0.832764 4.24825 1.428 4.20685 2.075C4.14576 3.10812 3.81566 4.10733 3.24929 4.97354L1.73273 7.27684C0.701075 8.8527 0.217208 10.7245 0.355927 12.6029C0.424955 13.521 0.737622 14.4041 1.26169 15.1611C1.78575 15.918 2.50224 16.5215 3.33728 16.9093C3.04637 16.458 2.8688 15.943 2.81969 15.4083C2.74341 14.3128 3.02693 13.2223 3.62714 12.3027L4.1085 11.5729C4.61005 10.8313 4.90811 9.97101 4.97289 9.07808C4.98037 8.97894 5.01214 8.88317 5.0654 8.79921C5.11866 8.71526 5.19177 8.64572 5.27827 8.59671C5.36531 8.54821 5.4633 8.52276 5.56295 8.52276C5.66259 8.52276 5.76058 8.54821 5.84763 8.59671C6.77001 9.09913 7.47147 9.92797 7.81449 10.9207C7.86797 10.7759 7.90107 10.6243 7.91284 10.4704C7.90437 10.3366 7.93702 10.2034 8.0064 10.0887C8.07579 9.97398 8.1786 9.88322 8.30103 9.82859C8.43413 9.78585 8.57717 9.78529 8.7106 9.82698C8.84402 9.86868 8.9613 9.95059 9.04637 10.0615C9.7242 10.6826 10.2646 11.4386 10.6327 12.281C11.0009 13.1234 11.1887 14.0335 11.184 14.9528C11.1847 15.5772 11.0223 16.1909 10.713 16.7333C11.633 16.2531 12.4042 15.5306 12.9434 14.6439C13.4825 13.7572 13.7691 12.74 13.772 11.7023C13.7703 10.1386 13.4389 8.59281 12.7994 7.16583C12.16 5.73885 11.2268 4.46273 10.0609 3.42075Z" fill="#FF7A1A"/>
<defs>
<linearGradient id="paint0_linear_2_7069" x1="7.06202" y1="7.82007" x2="7.06202" y2="17.4992" gradientUnits="userSpaceOnUse">
<stop stop-color="#FFC888"/>
<stop offset="1" stop-color="#FFEBCD"/>
</linearGradient>
<linearGradient id="paint1_linear_2_7069" x1="7.0102" y1="10.1865" x2="7.0102" y2="17.3966" gradientUnits="userSpaceOnUse">
<stop stop-color="#FFBD8D"/>
<stop offset="1" stop-color="#FF6B00"/>
</linearGradient>
</defs>
</svg>
