<svg width="36" height="36" viewBox="0 0 36 36" fill="none" xmlns="http://www.w3.org/2000/svg">
<rect x="0.5" y="0.5" width="35" height="35" rx="17.5" fill="white"/>
<rect x="0.5" y="0.5" width="35" height="35" rx="17.5" stroke="#EAF0F2"/>
<mask id="mask0_2_7127" style="mask-type:alpha" maskUnits="userSpaceOnUse" x="6" y="6" width="24" height="24">
<rect x="6" y="6" width="24" height="24" fill="#D9D9D9"/>
</mask>
<g mask="url(#mask0_2_7127)">
<path d="M15 15.3077V25.6922C15 25.782 15.0288 25.8557 15.0865 25.9134C15.1442 25.9711 15.2179 25.9999 15.3077 25.9999H22V22.9037C22 22.646 22.0862 22.431 22.2587 22.2587C22.4311 22.0862 22.6461 21.9999 22.9037 21.9999H26V15.3077C26 15.2178 25.9712 15.1441 25.9135 15.0864C25.8558 15.0287 25.7821 14.9999 25.6922 14.9999H15.3077C15.2179 14.9999 15.1442 15.0287 15.0865 15.0864C15.0288 15.1441 15 15.2178 15 15.3077ZM13.5 25.6922V15.2922C13.5 14.7935 13.6792 14.3702 14.0375 14.0222C14.3958 13.674 14.8243 13.4999 15.323 13.4999H25.6922C26.1909 13.4999 26.6169 13.6765 26.9702 14.0297C27.3234 14.383 27.5 14.809 27.5 15.3077V22.0402C27.5 22.2813 27.4532 22.5131 27.3595 22.7354C27.266 22.9579 27.1372 23.1512 26.973 23.3152L23.3152 26.9729C23.1512 27.1371 22.958 27.2659 22.7355 27.3594C22.5132 27.4531 22.2814 27.4999 22.0402 27.4999H15.3077C14.8091 27.4999 14.3831 27.3233 14.0297 26.9702C13.6766 26.6168 13.5 26.1908 13.5 25.6922ZM8.52499 12.4229C8.43149 11.9242 8.52866 11.4749 8.81649 11.0749C9.10416 10.6749 9.49741 10.4282 9.99624 10.3347L20.2307 8.52491C20.7192 8.43141 21.1609 8.53108 21.5557 8.82391C21.9506 9.11691 22.2051 9.50766 22.3192 9.99616L22.475 10.7999C22.5327 11.0499 22.4938 11.2492 22.3585 11.3979C22.2233 11.5467 22.0628 11.6346 21.877 11.6614C21.691 11.6884 21.5143 11.6554 21.347 11.5624C21.1798 11.4694 21.0642 11.2979 21 11.0479L20.825 10.2114C20.8122 10.1409 20.7737 10.0848 20.7095 10.0432C20.6455 10.0015 20.575 9.98708 20.498 9.99991L10.2597 11.8192C10.1699 11.832 10.1026 11.8737 10.0577 11.9442C10.0129 12.0147 9.99682 12.0948 10.0095 12.1847L11.673 21.6692C11.7102 21.8757 11.673 22.0642 11.5615 22.2347C11.45 22.4052 11.2911 22.5122 11.0847 22.5557C10.8719 22.5993 10.6812 22.5596 10.5125 22.4364C10.344 22.3134 10.2412 22.1455 10.204 21.9327L8.52499 12.4229Z" fill="#3D404B"/>
</g>
</svg>
